<svg xmlns="http://www.w3.org/2000/svg" viewBox="15 130 270 40" version="1.1">
	<path d="M 101 133.574 C 97.840 135.041, 93.466 138.291, 90.719 141.211 C 86.870 145.303, 86.139 145.765, 86.969 143.582 C 88.545 139.436, 88.208 136.208, 85.964 133.964 C 84.150 132.150, 82.872 131.960, 74.214 132.214 L 64.500 132.500 56.332 149 C 51.839 158.075, 48.127 166.063, 48.082 166.750 C 48.026 167.602, 49.677 168, 53.269 168 L 58.538 168 61.950 161.794 C 63.861 158.318, 65.533 156.228, 65.749 157.044 C 67.940 165.297, 70.881 168, 77.672 168 C 80.661 168, 81.098 167.727, 80.472 166.250 C 77.059 158.201, 76.200 154, 77.967 154 C 78.498 154, 80.463 152.471, 82.332 150.601 L 85.731 147.202 83.865 152.112 C 78.983 164.961, 84.881 171.609, 97.604 167.599 C 107.043 164.623, 119 151.046, 119 143.304 C 119 141.283, 119.491 141, 123 141 C 125.200 141, 127 141.232, 127 141.515 C 127 141.799, 124.300 147.417, 121 154 C 117.700 160.583, 115 166.426, 115 166.985 C 115 167.543, 116.540 168, 118.423 168 C 123.642 168, 126.900 164.440, 132.964 152.109 C 138.406 141.044, 138.442 141, 142.014 141 C 145.275 141, 145.800 140.591, 147.788 136.500 L 149.974 132 138.135 132 C 127.415 132, 125.975 132.218, 122.898 134.309 L 119.500 136.619 116.849 133.809 C 113.419 130.175, 108.476 130.102, 101 133.574 M 35.188 133.581 C 33.407 134.829, 17 165.415, 17 167.488 C 17 167.770, 18.845 168, 21.100 168 C 24.425 168, 25.796 167.381, 28.350 164.723 C 30.082 162.921, 32.267 159.996, 33.203 158.223 C 34.782 155.237, 35.281 155, 40.003 155 C 42.806 155, 46.404 154.325, 47.998 153.501 C 52.614 151.114, 56.239 145.571, 56.765 140.094 C 57.169 135.893, 56.928 135.063, 54.892 133.637 C 51.683 131.389, 38.371 131.352, 35.188 133.581 M 143.506 148.989 C 138.828 158.333, 135 166.433, 135 166.989 C 135 167.605, 139.029 168, 145.315 168 L 155.630 168 157.315 164.466 C 158.242 162.522, 159 160.722, 159 160.466 C 159 160.210, 157.200 160, 155 160 C 150.699 160, 150.368 159.481, 152.161 155.547 C 153.143 153.391, 153.983 153, 157.635 153 C 161.400 153, 162.143 152.625, 163.474 150.050 C 165.695 145.756, 165.399 145, 161.500 145 C 157.674 145, 157.506 144.791, 159.035 141.934 C 159.820 140.467, 161.144 140, 164.515 140 C 168.693 140, 169.081 139.761, 171 136 L 173.041 132 162.526 132 L 152.011 132 143.506 148.989 M 177.743 134.255 C 175.339 136.212, 159 164.895, 159 167.157 C 159 168.465, 165.418 168.150, 167.278 166.750 C 168.191 166.063, 171.202 161.716, 173.969 157.090 C 176.736 152.465, 178.991 149.090, 178.979 149.590 C 178.967 150.091, 177.842 154.302, 176.479 158.949 C 175.116 163.595, 174 167.533, 174 167.699 C 174 167.864, 175.968 168, 178.374 168 C 182.738 168, 182.759 167.983, 188.021 159.968 C 195.837 148.062, 196.389 148.362, 190.609 161.374 C 189.174 164.605, 188 167.418, 188 167.624 C 188 167.831, 191.847 168, 196.550 168 C 204.923 168, 211 166.307, 211 163.974 C 211 163.438, 212.584 163, 214.519 163 C 217.773 163, 217.991 163.188, 217.411 165.500 L 216.783 168 227.264 168 L 237.745 168 242.058 163.321 C 245.966 159.082, 246.472 158.813, 247.436 160.465 C 250.248 165.282, 252.646 167.143, 256.752 167.694 C 259.088 168.007, 261 168.012, 261 167.704 C 261 167.396, 259.922 163.117, 258.605 158.194 L 256.210 149.245 264.105 141.396 C 268.447 137.079, 272 133.199, 272 132.773 C 272 132.348, 269.209 132, 265.798 132 C 260.233 132, 259.271 132.315, 256.436 135.062 L 253.277 138.124 250.216 135.062 C 247.920 132.766, 246.242 132, 243.510 132 C 240.511 132, 239.956 132.310, 240.376 133.750 C 240.657 134.713, 241.635 138.141, 242.549 141.369 L 244.211 147.237 237.410 154.090 C 233.670 157.859, 230.464 160.797, 230.285 160.619 C 230.107 160.440, 231.319 154.574, 232.980 147.583 C 234.641 140.592, 236 134.226, 236 133.436 C 236 132.336, 234.487 132, 229.533 132 L 223.066 132 213.033 145.104 C 207.515 152.312, 203 157.948, 203 157.630 C 203 157.312, 204.395 153.553, 206.101 149.276 C 207.807 144.999, 210.050 139.363, 211.086 136.750 L 212.971 132 206.843 132 C 200.850 132, 200.611 132.105, 196.069 136.750 C 193.515 139.363, 190.678 142.625, 189.767 144 C 188.341 146.149, 188.382 145.519, 190.054 139.503 C 191.124 135.655, 192 132.392, 192 132.253 C 192 132.114, 189.412 132.002, 186.250 132.005 C 181.781 132.009, 179.886 132.510, 177.743 134.255 M 275.200 133.200 C 272.395 136.005, 274.508 141, 278.500 141 C 281.180 141, 283 139.180, 283 136.500 C 283 133.820, 281.180 132, 278.500 132 C 277.345 132, 275.860 132.540, 275.200 133.200 M 275.079 136.583 C 275.127 137.748, 275.364 137.985, 275.683 137.188 C 275.972 136.466, 275.936 135.603, 275.604 135.271 C 275.272 134.939, 275.036 135.529, 275.079 136.583 M 280.583 135.866 C 280.152 136.563, 280.070 137.403, 280.400 137.733 C 281.295 138.628, 282.271 137.312, 281.787 135.862 C 281.449 134.846, 281.213 134.846, 280.583 135.866 M 277.500 139 C 277.160 139.550, 277.610 140, 278.500 140 C 279.390 140, 279.840 139.550, 279.500 139 C 279.160 138.450, 278.710 138, 278.500 138 C 278.290 138, 277.840 138.450, 277.500 139 M 39.685 143.534 C 37.656 147.790, 37.639 148, 39.326 148 C 41.164 148, 45 143.731, 45 141.686 C 45 138.600, 41.449 139.835, 39.685 143.534 M 70.685 143.534 C 68.708 147.679, 68.663 148, 70.045 148 C 71.651 148, 76 143.285, 76 141.545 C 76 138.585, 72.404 139.930, 70.685 143.534 M 102.617 142.087 C 97.925 145.778, 92.663 157.055, 94.968 158.480 C 96.898 159.673, 100.996 155.696, 103.969 149.745 C 105.636 146.410, 107 143.104, 107 142.399 C 107 140.106, 105.290 139.984, 102.617 142.087 M 219.241 151.540 C 217.416 154.334, 217.277 155, 218.516 155 C 219.359 155, 220.503 153.807, 221.058 152.349 C 222.647 148.168, 221.714 147.753, 219.241 151.540" stroke="none" fill="#000000" fill-rule="evenodd"/>
</svg>